<?xml version="1.0" encoding="UTF-8"?>
<svg xml:space="preserve" id="gwmroot" preserveAspectRatio="xMidYMid meet" viewBox="0 0 232 563" xmlns="http://www.w3.org/2000/svg" xmlns:xlink="http://www.w3.org/1999/xlink" xmlns:gmwmsvg="http://www.intergraph.com/GeoMedia/wmsvg" style="stroke-linejoin:round">
<script type="text/javascript" id="gwmlegendscript"><![CDATA[
var _GWMLegendDisplayOrder = [
{name : "10", title : "Erhaltungssatzung", locatable :true, leaf : true, hotspot : false, members : [
]}
];
var _GWMLegendGroup = [
{name : "10", title : "Erhaltungssatzung", members : [
]}
];
]]></script>
<defs id="gwmdefs">
<filter id="HaloW7T6A4a" filterUnits="objectBoundingBox" x="-20%" y="-20%" width="140%" height="140%">
<feColorMatrix in="SourceAlpha" result="color" type="matrix" values="0 0 0 0 0.00 0 0 0 0 0.00 0 0 0 0 0.00 0 0 0 1 0"/>
<feMorphology in="color" radius="16175315.14,16175315.14" operator="dilate" result="outline"/>
<feComposite in="SourceGraphic" in2="outline"/>
</filter>
<path d="M0 0l1 0 0 1-1 0zM2 1l1 0 0 1-1 0z" id="_P9"/>
<pattern id="_W7T6A4a" patternUnits="userSpaceOnUse" x="0" y="0" width="4" height="2" style="stroke:none;fill:#3399ff">
<use xlink:href="#_P9"/>
</pattern>
<pattern id="_P9-H-" patternUnits="userSpaceOnUse" x="0" y="0" width="4" height="2" style="stroke:none;fill:#00ffff">
<use xlink:href="#_P9"/>
</pattern>
<pattern id="_W7T6A4a" patternUnits="userSpaceOnUse" x="0" y="0" width="4" height="2" style="stroke:none;fill:#3399ff">
<use xlink:href="#_P9"/>
</pattern>
<pattern id="_P9-S-" patternUnits="userSpaceOnUse" x="0" y="0" width="4" height="2" style="stroke:none;fill:#00ff00">
<use xlink:href="#_P9"/>
</pattern>
<path id="W7T6A4bM" d="M96.40 274.83l-1.05 .72 1.06-.51"/>
<path id="W7T6A4bL" d="M99.41 277.50l-.09-1.62-1.33-.32-.75 1.55 1.27 .22"/>
<path id="W7T6A4bK" d="M148.81 278.07l-1.04 .88 .80 1.09 .94 1.01 1.02 .78 1.02-.63 1.13 .22 1.01 .21 .87-1.05-.67-1.02 1.01-.66 .30-1.00-1.04-.50-1.01-.46-1.00-.63-1.28 .44-1.16 .31-1.08 .25"/>
<path id="W7T6A4bJ" d="M139.87 288.09l-1.06-1.08-.98-1.05-.36-1.01-1.00-.26-.49 1.04-1.07-.02-1.09-.17-.39 1.08 1.06 .73 1.01 .78 1.21 .43 1.01 .72 1.03 .14 .87-1.02"/>
<path id="W7T6A4bI" d="M124.00 320.30l-.62-1.07-.22-1.02-.57-1.05-.66-1.05-1.21-.01 .41 1.06-.76 1.85 1.13-.24 .85 1.48 1.24 .36"/>
<path id="W7T6A4bH" d="M171.57 326.78l 1.21-.08-.28-1.04-1.41-.77-.61-1.16-1.05-.02-1.26-.01-1.33-.02-.40 1.12-.13 1.19-.03 1.86 1.18 .04 1.72 .66 1.00 .01 1.24 .03 .09-1.66"/>
<path id="W7T6A4bG" d="M168.49 347.57l 1.10 .18 1.01-.08 1.02 .05 1.07-.44-.23-1.02 .62-1.00-1.04-1.02-1.02 .28-1.16 .80-.69 1.02-.64 1.02"/>
<path id="W7T6A4bF" d="M173.01 250.03l 2.48 .26-1.37-.67-1.12 .42"/>
<path id="W7T6A4bE" d="M168.54 254.84l 1.75 .87 1.10 .25 1.29-.02-.09-1.03-1.17-.06-1.47-.01-1.38-0"/>
<path id="W7T6A4bD" d="M151.15 274.00l-1.37 .06-1.03-.02 0 1.28 .43 1.58 1.01-.38-.23-1.11 .65-1.00"/>
<path id="W7T6A4bC" d="M147.11 268.31l 1.15 .68 1.06-.06 1.02-.03 .61 1.13 1.28 .58 .71-1.13-.25-1.07 1.06-.28-.12-1.69-.61-1.38 .56-1.41-1.18 .08-1.11 .58-1.43-.21-1.02 .51-.93 1.08-1.29 1.18 .44 1.04"/>
<path id="W7T6A4bB" d="M143.03 266.30l 1.24-.58 1.03-.76-1.07-.69-1.44 .92 .25 1.11"/>
<path id="W7T6A4bA" d="M129.07 268.38l-.13-1.08-.61-1.02-.81-1.43-1.21 .43-.13 1.21-.17 1.09 1.01 .51 1.04 .17 1.01 .12"/>
<path id="W7T6A4bz" d="M124.02 259.34l-1.14 .09 1.05-.02"/>
<path id="W7T6A4by" d="M121.78 246.79l .66 1.31 .71 1.28 2.87 1.54 2.02 1.19 1.45 1.03 2.01-2.25-1.31-.38 .15-2.11 1.40-.50 1.16-1.02-1.23-.79-1.15-.05-1.34-.02-1.75-.03-1.39-.05-2.05 .01-1.22 .23"/>
<path id="W7T6A4bx" d="M122.56 257.90l-1.03-.47-1.03-.22-1.15-.18-1.10-.13-1.08-.09-1.02-.06-.15 1.62-1.14-0-.64 1.01 1.77 .17-.07 1.21-1.89-.12-.06 1.46 .05 1.12 .30 1.07 1.04 .32 .31 1.29 1.97-1.32 .22-1.60-.24-1.13 1.02-.55 .50-1.04 .89-1.09 1.01-.90 1.08-.28"/>
<path id="W7T6A4bw" d="M107.82 264.36l-.07 1.83 1.06-.07 1.07-.59 1.10-1.04 .90-1.26 .79-1.09 .39-1.11 .11-1.11 .09-1.67 .09-1.13-1.50-.12-1.05-.16-1.00-.11-1.15-.13-.60 1.59-.08 2.30-.07 1.93-.05 1.41"/>
<path id="W7T6A4bv" d="M103.07 268.58l-1.09-.28-1.02 .24-1.08 .26-1.03 .04-1.01-.13-1.09-.39 .04 1.09-.49 1.03-.15 1.11 .18 1.06 1.44 .16 .60-1.10 1.45 .46 .86-1.02 1.05-.57 1.06 .10 .14-1.03 .12-1.02"/>
<path id="W7T6A4bu" d="M98.44 259.54l .48-1.08 .46-1.01-1.70-.83-1.56 2.05-1.76-.96-1.13 .68-.08 1.15-.15 2.11 .33 1.23 1.02 .51 1.91 .47 1.04 .10 .32-1.04 .17-1.07 .17-1.09 .48-1.23"/>
<path id="W7T6A4bt" d="M86.29 262.18l 1.02 .15 1.22 .13 1.01 .27 1.08-.24-.89-1.12-.31-1.04-.61-1.13-.59-1.01-1.02 1.03-.73 1.04 .45 1.05"/>
<path id="W7T6A4bs" d="M101.57 190.70l-.19-1.02-1.10-.44-1.02 .05-1.05-.14-.33 1.05 .37 1.06 1.01 .71 1.17 .28 .91-1.01"/>
<path id="W7T6A4br" d="M100.22 223.93l-.50-1.03-.84-1.06-.89-1.36-.78-1.20-.65-1.01-.42-1.04-.57-1.11-1.15 .19-1.04 .82 1.03 .90 1.07 1.07 .90 1.02 .81 1.06 .70 1.04 .63 1.07 .54 1.11 1.05-.23"/>
<path id="W7T6A4bq" d="M105.12 236.20l-.30-1.07-1.67-.33-1.16-.16 .04 1.02 1.07 .46 1.45 .62"/>
<path id="W7T6A4bp" d="M77.70 237.72l-1.00-.79-1.00-.59-.78 1.06 1.03 .40 1.01-.04"/>
<path id="W7T6A4bo" d="M79.37 237.61l-1.21-.70 1.57 1.63"/>
<path id="W7T6A4bn" d="M80.01 238.65l 1.40-1.03 6.24 .26 1.14 .02 1.75 .03 1.00-1.19-.09-1.07-.24 1.08-.89 1.02-1.13-.48-1.00 .10-1.19-.51-1.04 .49-1.07-.26-1.06-.95-1.01-.20-.71 1.32-1.07-.81-1.09-.17 .10 1.70"/>
<path id="W7T6A4bm" d="M75.54 237.99l 1.30 1.29 1.98 .82 1.53 .61 1.64 .65 1.77 .71 1.44 .58 1.05 .40 1.03 .26 1.04 .26 1.21 .30 .29-1.07 1.11-1.12 .52-1.34 .05-1.04-2.74-1.00-1.02-.02-1.83-.04-1.64-.03-2.56-.05-1.58 .86-1.81-1.12-1.48 .02-1.29 .06"/>
<path id="W7T6A4bl" d="M104.95 244.75l-1.44-.65 .15-3.08 0-1.10-1.23-.55-1.28-.28-1.02-.10-.22 1.18-.78 2.06-.02 1.48-.45 2.47-.43 1.08-.51 1.11-.49 1.11-.81 1.77-.81 2.17 1.49 .17 2.17 .11 2.26 .12 1.83 .09 1.09-.84 .11-1.14 .10-2.60 .11-1.16 .01-1.28 .15-1.85"/>
<path id="W7T6A4bk" d="M121.92 194.72l-.21-1.02-.23-1.06-.76-1.10-.84 1.02 .18 1.03 .15 1.01 1.03 .42"/>
<path id="W7T6A4bj" d="M119.17 218.67l .61-1.40-.67-1.04-1.14-.18 .27 1.52 .93 1.10"/>
<path id="W7T6A4bi" d="M104.84 223.40l-.49-1.01-.85-1.26-1.02 .52-1.24 .90-.17 1.08 .55 1.32 .66 1.00 1.23-.54 1.00 .58 1.30-.65-.55-1.10"/>
<path id="W7T6A4bh" d="M145.32 227.43l .85 1.04 1.32 .82 1.09 .11-.92-1.08-1.05-.47-1.30-.42"/>
<path id="W7T6A4bg" d="M142.02 221.80l-2.23 .40-.06 1.08-.17 2.94-.06 1.23-.08 1.26-.10 1.54 1.27-.52 2.00 .97 .38-1.58 .68-2.33-1.59-4.97"/>
<path id="W7T6A4bf" d="M164.31 227.40l-1.01 2.14-.54 1.15-1.09 1.07 1.88 .89 1.30 .42 1.17 .20 1.37 .02 .43-1.09 .01-1.61-.21-1.85 1.26-.04-.67-1.45-2.34 .08-1.04 .04"/>
<path id="W7T6A4be" d="M159.16 230.85l-1.14 .58-1.37 .33-.46 1.25 1.74-.02 2.01 .34-.63 1.04-1.28 .91 1.65 1.52 1.71 .68 .45-1.08 .11-1.24 .94-1.67-1.15-1.44-1.03-.47-1.59-.73"/>
<path id="W7T6A4bd" d="M164.24 239.03l-1.18 .61 .82 1.01 .94 1.09 1.27 .19-.05-1.07-1.10-.80-.71-1.02"/>
<path id="W7T6A4bc" d="M120.38 241.28l .32 1.56 .46 1.00 1.55 1.29 1.30 .41 1.79 .05 1.26 .01 2.38 .01 1.00-0 1.08-.01 1.21-.08 1.50-.50 1.07-.67 1.14-1.33 .76-1.85-2.66-1.07 .71-3.20-2.19 .66-2.85 .98-1.11 .38-1.73 .58-1.14 .29-1.22 .28-1.26 .31-1.05 .24-1.22 .40-1.11 .26"/>
<path id="W7T6A4bb" d="M169.11 249.02l .51 1.61 2.07-.33-.63-1.18-1.94-.10"/>
</defs>
<style type="text/css" id="gwmstyles"><![CDATA[
.GWMLine
{
stroke:#000000;
fill:none;
opacity:0;
stroke-width:1px;
pointer-events:visiblePainted;}
.GWMLine-H-
{
stroke:#000000;
fill:none;
opacity:0;
stroke-width:1px;
pointer-events:none;}
.GWMLine-S-
{
stroke:#000000;
fill:none;
opacity:0;
stroke-width:1px;
pointer-events:none;}
.GWMFill
{
stroke:#000000;
fill:#ff0000;
opacity:0;
stroke-width:1px;
pointer-events:visiblePainted;}
.GWMFill-H-
{
stroke:#000000;
fill:#000000;
opacity:0;
stroke-width:1px;
pointer-events:none;}
.GWMFill-S-
{
stroke:#000000;
fill:#000000;
opacity:0;
stroke-width:1px;
pointer-events:none;}
.W7T6A4b
{
stroke:#3399ff;
fill:none;
stroke-width:1.33333px;
stroke-linecap:round;
stroke-linejoin:round;
pointer-events:visiblePainted}
.W7T6A4b-H-
{
stroke:#00ffff;
fill:none;
stroke-opacity:0.501961;
stroke-width:1.33333px;
stroke-linecap:round;
stroke-linejoin:round;
pointer-events:none;}
.W7T6A4b-S-
{
stroke:#00ff00;
fill:none;
stroke-opacity:0.501961;
stroke-width:1.33333px;
stroke-linecap:round;
stroke-linejoin:round;
pointer-events:none;}
.W7T6A4a
{
fill:url(#_W7T6A4a);
stroke:none;
pointer-events:visible}
.W7T6A4a-H-
{
fill:url(#_P9-H-);
stroke:none;
fill-opacity:0.501961;
pointer-events:none;}
.W7T6A4a-S-
{
fill:url(#_P9-S-);
stroke:none;
fill-opacity:0.501961;
pointer-events:none;}
]]></style>
<mask id="gwmmask">
<rect id="gwmmaskrect" x="0" y="0" width="232" height="563" style="fill:white;"/>
</mask>
<g id="_GWMAll" gmwmsvg:typ="a" mask="url(#gwmmask)">
<metadata><gmwmsvg:metadata id="_GWMMetadata" gmwmsvg:storageoffsetx="335483.166888279900000" gmwmsvg:storageoffsety="5699291.157206041700000" gmwmsvg:storagetoreadoutscale="1.000000000000000" gmwmsvg:readoutoffsetx="0.000000000000000" gmwmsvg:readoutoffsety="0.000000000000000" gmwmsvg:readoutunit="m" gmwmsvg:storagetodistancescale="1.000000000000000" gmwmsvg:distanceunit="m" gmwmsvg:displaytostoragescale="0.011164485731228" gmwmsvg:rotationangle="0.000000000000000" gmwmsvg:version="2.0"/></metadata>
<rect id="gwmbg" x="-2320" y="-5630" width="4872" height="11823" style="fill:#ffffff;stroke:none;opacity:0.000000000000000;"/>
<g id="10" gmwmsvg:typ="l">
<use xlink:href="#W7T6A4bb" id="W7T6A4bb.0" class="W7T6A4a"/>
<use xlink:href="#W7T6A4bb" id="W7T6A4bb.1" class="W7T6A4b"/>
<use xlink:href="#W7T6A4bc" id="W7T6A4bc.0" class="W7T6A4a"/>
<use xlink:href="#W7T6A4bc" id="W7T6A4bc.1" class="W7T6A4b"/>
<use xlink:href="#W7T6A4bd" id="W7T6A4bd.0" class="W7T6A4a"/>
<use xlink:href="#W7T6A4bd" id="W7T6A4bd.1" class="W7T6A4b"/>
<use xlink:href="#W7T6A4be" id="W7T6A4be.0" class="W7T6A4a"/>
<use xlink:href="#W7T6A4be" id="W7T6A4be.1" class="W7T6A4b"/>
<use xlink:href="#W7T6A4bf" id="W7T6A4bf.0" class="W7T6A4a"/>
<use xlink:href="#W7T6A4bf" id="W7T6A4bf.1" class="W7T6A4b"/>
<use xlink:href="#W7T6A4bg" id="W7T6A4bg.0" class="W7T6A4a"/>
<use xlink:href="#W7T6A4bg" id="W7T6A4bg.1" class="W7T6A4b"/>
<use xlink:href="#W7T6A4bh" id="W7T6A4bh.0" class="W7T6A4a"/>
<use xlink:href="#W7T6A4bh" id="W7T6A4bh.1" class="W7T6A4b"/>
<use xlink:href="#W7T6A4bi" id="W7T6A4bi.0" class="W7T6A4a"/>
<use xlink:href="#W7T6A4bi" id="W7T6A4bi.1" class="W7T6A4b"/>
<use xlink:href="#W7T6A4bj" id="W7T6A4bj.0" class="W7T6A4a"/>
<use xlink:href="#W7T6A4bj" id="W7T6A4bj.1" class="W7T6A4b"/>
<use xlink:href="#W7T6A4bk" id="W7T6A4bk.0" class="W7T6A4a"/>
<use xlink:href="#W7T6A4bk" id="W7T6A4bk.1" class="W7T6A4b"/>
<use xlink:href="#W7T6A4bl" id="W7T6A4bl.0" class="W7T6A4a"/>
<use xlink:href="#W7T6A4bl" id="W7T6A4bl.1" class="W7T6A4b"/>
<use xlink:href="#W7T6A4bm" id="W7T6A4bm.0" class="W7T6A4a"/>
<use xlink:href="#W7T6A4bm" id="W7T6A4bm.1" class="W7T6A4b"/>
<use xlink:href="#W7T6A4bn" id="W7T6A4bn.0" class="W7T6A4a"/>
<use xlink:href="#W7T6A4bn" id="W7T6A4bn.1" class="W7T6A4b"/>
<use xlink:href="#W7T6A4bo" id="W7T6A4bo.0" class="W7T6A4a"/>
<use xlink:href="#W7T6A4bo" id="W7T6A4bo.1" class="W7T6A4b"/>
<use xlink:href="#W7T6A4bp" id="W7T6A4bp.0" class="W7T6A4a"/>
<use xlink:href="#W7T6A4bp" id="W7T6A4bp.1" class="W7T6A4b"/>
<use xlink:href="#W7T6A4bq" id="W7T6A4bq.0" class="W7T6A4a"/>
<use xlink:href="#W7T6A4bq" id="W7T6A4bq.1" class="W7T6A4b"/>
<use xlink:href="#W7T6A4br" id="W7T6A4br.0" class="W7T6A4a"/>
<use xlink:href="#W7T6A4br" id="W7T6A4br.1" class="W7T6A4b"/>
<use xlink:href="#W7T6A4bs" id="W7T6A4bs.0" class="W7T6A4a"/>
<use xlink:href="#W7T6A4bs" id="W7T6A4bs.1" class="W7T6A4b"/>
<use xlink:href="#W7T6A4bt" id="W7T6A4bt.0" class="W7T6A4a"/>
<use xlink:href="#W7T6A4bt" id="W7T6A4bt.1" class="W7T6A4b"/>
<use xlink:href="#W7T6A4bu" id="W7T6A4bu.0" class="W7T6A4a"/>
<use xlink:href="#W7T6A4bu" id="W7T6A4bu.1" class="W7T6A4b"/>
<use xlink:href="#W7T6A4bv" id="W7T6A4bv.0" class="W7T6A4a"/>
<use xlink:href="#W7T6A4bv" id="W7T6A4bv.1" class="W7T6A4b"/>
<use xlink:href="#W7T6A4bw" id="W7T6A4bw.0" class="W7T6A4a"/>
<use xlink:href="#W7T6A4bw" id="W7T6A4bw.1" class="W7T6A4b"/>
<use xlink:href="#W7T6A4bx" id="W7T6A4bx.0" class="W7T6A4a"/>
<use xlink:href="#W7T6A4bx" id="W7T6A4bx.1" class="W7T6A4b"/>
<use xlink:href="#W7T6A4by" id="W7T6A4by.0" class="W7T6A4a"/>
<use xlink:href="#W7T6A4by" id="W7T6A4by.1" class="W7T6A4b"/>
<use xlink:href="#W7T6A4bz" id="W7T6A4bz.0" class="W7T6A4a"/>
<use xlink:href="#W7T6A4bz" id="W7T6A4bz.1" class="W7T6A4b"/>
<use xlink:href="#W7T6A4bA" id="W7T6A4bA.0" class="W7T6A4a"/>
<use xlink:href="#W7T6A4bA" id="W7T6A4bA.1" class="W7T6A4b"/>
<use xlink:href="#W7T6A4bB" id="W7T6A4bB.0" class="W7T6A4a"/>
<use xlink:href="#W7T6A4bB" id="W7T6A4bB.1" class="W7T6A4b"/>
<use xlink:href="#W7T6A4bC" id="W7T6A4bC.0" class="W7T6A4a"/>
<use xlink:href="#W7T6A4bC" id="W7T6A4bC.1" class="W7T6A4b"/>
<use xlink:href="#W7T6A4bD" id="W7T6A4bD.0" class="W7T6A4a"/>
<use xlink:href="#W7T6A4bD" id="W7T6A4bD.1" class="W7T6A4b"/>
<use xlink:href="#W7T6A4bE" id="W7T6A4bE.0" class="W7T6A4a"/>
<use xlink:href="#W7T6A4bE" id="W7T6A4bE.1" class="W7T6A4b"/>
<use xlink:href="#W7T6A4bF" id="W7T6A4bF.0" class="W7T6A4a"/>
<use xlink:href="#W7T6A4bF" id="W7T6A4bF.1" class="W7T6A4b"/>
<use xlink:href="#W7T6A4bG" id="W7T6A4bG.0" class="W7T6A4a"/>
<use xlink:href="#W7T6A4bG" id="W7T6A4bG.1" class="W7T6A4b"/>
<use xlink:href="#W7T6A4bH" id="W7T6A4bH.0" class="W7T6A4a"/>
<use xlink:href="#W7T6A4bH" id="W7T6A4bH.1" class="W7T6A4b"/>
<use xlink:href="#W7T6A4bI" id="W7T6A4bI.0" class="W7T6A4a"/>
<use xlink:href="#W7T6A4bI" id="W7T6A4bI.1" class="W7T6A4b"/>
<use xlink:href="#W7T6A4bJ" id="W7T6A4bJ.0" class="W7T6A4a"/>
<use xlink:href="#W7T6A4bJ" id="W7T6A4bJ.1" class="W7T6A4b"/>
<use xlink:href="#W7T6A4bK" id="W7T6A4bK.0" class="W7T6A4a"/>
<use xlink:href="#W7T6A4bK" id="W7T6A4bK.1" class="W7T6A4b"/>
<use xlink:href="#W7T6A4bL" id="W7T6A4bL.0" class="W7T6A4a"/>
<use xlink:href="#W7T6A4bL" id="W7T6A4bL.1" class="W7T6A4b"/>
<use xlink:href="#W7T6A4bM" id="W7T6A4bM.0" class="W7T6A4a"/>
<use xlink:href="#W7T6A4bM" id="W7T6A4bM.1" class="W7T6A4b"/>
</g>
</g>
</svg>
