<?xml version="1.0" encoding="UTF-8" standalone="no"?>
<svg width="880px" height="167px" viewBox="0 0 880 167" version="1.1" xmlns="http://www.w3.org/2000/svg" xmlns:xlink="http://www.w3.org/1999/xlink">
    <!-- Generator: Sketch 3.8.3 (29802) - http://www.bohemiancoding.com/sketch -->
    <title>frachter</title>
    <desc>Created with Sketch.</desc>
    <defs>
        <rect id="path-1" x="35" y="58" width="12" height="7" rx="3.5"></rect>
        <mask id="mask-2" maskContentUnits="userSpaceOnUse" maskUnits="objectBoundingBox" x="0" y="0" width="12" height="7" fill="white">
            <use xlink:href="#path-1"></use>
        </mask>
        <rect id="path-3" x="51" y="58" width="12" height="7" rx="3.5"></rect>
        <mask id="mask-4" maskContentUnits="userSpaceOnUse" maskUnits="objectBoundingBox" x="0" y="0" width="12" height="7" fill="white">
            <use xlink:href="#path-3"></use>
        </mask>
        <rect id="path-5" x="90" y="33" width="12" height="7" rx="3.5"></rect>
        <mask id="mask-6" maskContentUnits="userSpaceOnUse" maskUnits="objectBoundingBox" x="0" y="0" width="12" height="7" fill="white">
            <use xlink:href="#path-5"></use>
        </mask>
        <rect id="path-7" x="91" y="1" width="12" height="7" rx="3.5"></rect>
        <mask id="mask-8" maskContentUnits="userSpaceOnUse" maskUnits="objectBoundingBox" x="0" y="0" width="12" height="7" fill="white">
            <use xlink:href="#path-7"></use>
        </mask>
        <rect id="path-9" x="91" y="10" width="12" height="7" rx="3.5"></rect>
        <mask id="mask-10" maskContentUnits="userSpaceOnUse" maskUnits="objectBoundingBox" x="0" y="0" width="12" height="7" fill="white">
            <use xlink:href="#path-9"></use>
        </mask>
        <rect id="path-11" x="94" y="45" width="12" height="7" rx="3.5"></rect>
        <mask id="mask-12" maskContentUnits="userSpaceOnUse" maskUnits="objectBoundingBox" x="0" y="0" width="12" height="7" fill="white">
            <use xlink:href="#path-11"></use>
        </mask>
        <rect id="path-13" x="81" y="45" width="12" height="7" rx="3.5"></rect>
        <mask id="mask-14" maskContentUnits="userSpaceOnUse" maskUnits="objectBoundingBox" x="0" y="0" width="12" height="7" fill="white">
            <use xlink:href="#path-13"></use>
        </mask>
        <rect id="path-15" x="68" y="45" width="12" height="7" rx="3.5"></rect>
        <mask id="mask-16" maskContentUnits="userSpaceOnUse" maskUnits="objectBoundingBox" x="0" y="0" width="12" height="7" fill="white">
            <use xlink:href="#path-15"></use>
        </mask>
        <rect id="path-17" x="75" y="33" width="12" height="7" rx="3.5"></rect>
        <mask id="mask-18" maskContentUnits="userSpaceOnUse" maskUnits="objectBoundingBox" x="0" y="0" width="12" height="7" fill="white">
            <use xlink:href="#path-17"></use>
        </mask>
        <rect id="path-19" x="35" y="110" width="12" height="7" rx="3.5"></rect>
        <mask id="mask-20" maskContentUnits="userSpaceOnUse" maskUnits="objectBoundingBox" x="0" y="0" width="12" height="7" fill="white">
            <use xlink:href="#path-19"></use>
        </mask>
        <rect id="path-21" x="51" y="110" width="12" height="7" rx="3.5"></rect>
        <mask id="mask-22" maskContentUnits="userSpaceOnUse" maskUnits="objectBoundingBox" x="0" y="0" width="12" height="7" fill="white">
            <use xlink:href="#path-21"></use>
        </mask>
        <rect id="path-23" x="90" y="85" width="12" height="7" rx="3.5"></rect>
        <mask id="mask-24" maskContentUnits="userSpaceOnUse" maskUnits="objectBoundingBox" x="0" y="0" width="12" height="7" fill="white">
            <use xlink:href="#path-23"></use>
        </mask>
        <rect id="path-25" x="91" y="1" width="12" height="7" rx="3.5"></rect>
        <mask id="mask-26" maskContentUnits="userSpaceOnUse" maskUnits="objectBoundingBox" x="0" y="0" width="12" height="7" fill="white">
            <use xlink:href="#path-25"></use>
        </mask>
        <rect id="path-27" x="91" y="10" width="12" height="7" rx="3.5"></rect>
        <mask id="mask-28" maskContentUnits="userSpaceOnUse" maskUnits="objectBoundingBox" x="0" y="0" width="12" height="7" fill="white">
            <use xlink:href="#path-27"></use>
        </mask>
        <rect id="path-29" x="94" y="97" width="12" height="7" rx="3.5"></rect>
        <mask id="mask-30" maskContentUnits="userSpaceOnUse" maskUnits="objectBoundingBox" x="0" y="0" width="12" height="7" fill="white">
            <use xlink:href="#path-29"></use>
        </mask>
        <rect id="path-31" x="81" y="97" width="12" height="7" rx="3.5"></rect>
        <mask id="mask-32" maskContentUnits="userSpaceOnUse" maskUnits="objectBoundingBox" x="0" y="0" width="12" height="7" fill="white">
            <use xlink:href="#path-31"></use>
        </mask>
        <rect id="path-33" x="68" y="97" width="12" height="7" rx="3.5"></rect>
        <mask id="mask-34" maskContentUnits="userSpaceOnUse" maskUnits="objectBoundingBox" x="0" y="0" width="12" height="7" fill="white">
            <use xlink:href="#path-33"></use>
        </mask>
        <rect id="path-35" x="75" y="85" width="12" height="7" rx="3.5"></rect>
        <mask id="mask-36" maskContentUnits="userSpaceOnUse" maskUnits="objectBoundingBox" x="0" y="0" width="12" height="7" fill="white">
            <use xlink:href="#path-35"></use>
        </mask>
    </defs>
    <g id="Page-9" stroke="none" stroke-width="1" fill="none" fill-rule="evenodd">
        <g id="frachter">
            <g id="schland" transform="translate(0.000000, 52.000000)">
                <rect id="Rectangle-113" fill="#FFFFFF" x="73" y="0" width="31" height="32"></rect>
                <rect id="Rectangle-24" fill="#F85D00" x="119" y="73" width="31" height="18"></rect>
                <rect id="Rectangle-24-Copy" fill="#1973DD" x="150" y="73" width="31" height="18"></rect>
                <rect id="Rectangle-24-Copy-2" fill="#F8E81C" x="181" y="73" width="31" height="18"></rect>
                <rect id="Rectangle-24-Copy-3" fill="#4990E2" x="212" y="73" width="31" height="18"></rect>
                <rect id="Rectangle-24-Copy-4" fill="#D0011B" x="243" y="73" width="31" height="18"></rect>
                <rect id="Rectangle-24-Copy-5" fill="#50E3C2" x="274" y="73" width="31" height="18"></rect>
                <rect id="Rectangle-24-Copy-6" fill="#F6A623" x="305" y="73" width="31" height="18"></rect>
                <rect id="Rectangle-24-Copy-7" fill="#F6A623" x="336" y="73" width="31" height="18"></rect>
                <rect id="Rectangle-24-Copy-8" fill="#7ED321" x="367" y="73" width="31" height="18"></rect>
                <rect id="Rectangle-24-Copy-9" fill="#7ED321" x="106" y="55" width="31" height="18"></rect>
                <rect id="Rectangle-24-Copy-18" fill="#F8E81C" x="106" y="37" width="31" height="18"></rect>
                <rect id="Rectangle-24-Copy-27" fill="#4990E2" x="106" y="19" width="31" height="18"></rect>
                <rect id="Rectangle-24-Copy-28" fill="#F8E81C" x="137" y="19" width="31" height="18"></rect>
                <rect id="Rectangle-24-Copy-29" fill="#7ED321" x="168" y="19" width="31" height="18"></rect>
                <rect id="Rectangle-24-Copy-19" fill="#50E3C2" x="137" y="37" width="31" height="18"></rect>
                <rect id="Rectangle-24-Copy-20" fill="#50E3C2" x="168" y="37" width="31" height="18"></rect>
                <rect id="Rectangle-24-Copy-21" fill="#F6A623" x="199" y="37" width="31" height="18"></rect>
                <rect id="Rectangle-24-Copy-22" fill="#F85D00" x="230" y="37" width="31" height="18"></rect>
                <rect id="Rectangle-24-Copy-23" fill="#8B572A" x="261" y="37" width="31" height="18"></rect>
                <rect id="Rectangle-24-Copy-24" fill="#4990E2" x="292" y="37" width="31" height="18"></rect>
                <rect id="Rectangle-24-Copy-25" fill="#D0011B" x="323" y="37" width="31" height="18"></rect>
                <rect id="Rectangle-24-Copy-26" fill="#B8E986" x="354" y="37" width="31" height="18"></rect>
                <rect id="Rectangle-24-Copy-10" fill="#F85D00" x="137" y="55" width="31" height="18"></rect>
                <rect id="Rectangle-24-Copy-11" fill="#B8E986" x="168" y="55" width="31" height="18"></rect>
                <rect id="Rectangle-24-Copy-12" fill="#C31D1D" x="199" y="55" width="31" height="18"></rect>
                <rect id="Rectangle-24-Copy-13" fill="#7ED321" x="230" y="55" width="31" height="18"></rect>
                <rect id="Rectangle-24-Copy-14" fill="#FBBB00" x="261" y="55" width="31" height="18"></rect>
                <rect id="Rectangle-24-Copy-30" fill="#50E3C2" x="292" y="55" width="31" height="18"></rect>
                <rect id="Rectangle-24-Copy-16" fill="#8B572A" x="323" y="55" width="31" height="18"></rect>
                <rect id="Rectangle-24-Copy-17" fill="#F8E81C" x="354" y="55" width="31" height="18"></rect>
                <polygon id="Path-3" fill="#FFFFFF" points="20.2866211 87.2177734 20.0693359 79.4692383 29.8583984 79.5126953 29.7612305 62.7617188 32.5048828 54.5488281 65.6044922 54.625 65.6152344 31.7275391 103.887695 31.4121094 103.887695 40.9404297 108.371094 41.2011719 108.28418 64.7158203 111.801758 64.9765625 111.898438 71.8378906 117.933594 72.2724609 141.952148 99.1171875 22.6396484 95.3740234"></polygon>
                <use id="Rectangle-1" stroke="#979797" mask="url(#mask-2)" stroke-width="2" fill="#000000" xlink:href="#path-1"></use>
                <use id="Rectangle-1-Copy" stroke="#979797" mask="url(#mask-4)" stroke-width="2" fill="#000000" xlink:href="#path-3"></use>
                <use id="Rectangle-1-Copy-2" stroke="#979797" mask="url(#mask-6)" stroke-width="2" fill="#000000" xlink:href="#path-5"></use>
                <use id="Rectangle-1-Copy-7" stroke="#979797" mask="url(#mask-8)" stroke-width="2" fill="#000000" xlink:href="#path-7"></use>
                <use id="Rectangle-1-Copy-8" stroke="#979797" mask="url(#mask-10)" stroke-width="2" fill="#000000" xlink:href="#path-9"></use>
                <use id="Rectangle-1-Copy-4" stroke="#979797" mask="url(#mask-12)" stroke-width="2" fill="#000000" xlink:href="#path-11"></use>
                <use id="Rectangle-1-Copy-5" stroke="#979797" mask="url(#mask-14)" stroke-width="2" fill="#000000" xlink:href="#path-13"></use>
                <use id="Rectangle-1-Copy-6" stroke="#979797" mask="url(#mask-16)" stroke-width="2" fill="#000000" xlink:href="#path-15"></use>
                <circle id="Oval-1" stroke="#979797" fill="#000000" cx="107" cy="69" r="3"></circle>
                <circle id="Oval-1-Copy-5" stroke="#979797" fill="#000000" cx="119" cy="81" r="3"></circle>
                <circle id="Oval-1-Copy-6" stroke="#979797" fill="#000000" cx="111" cy="81" r="3"></circle>
                <circle id="Oval-1-Copy-7" stroke="#979797" fill="#000000" cx="103" cy="81" r="3"></circle>
                <circle id="Oval-1-Copy-8" stroke="#979797" fill="#000000" cx="95" cy="81" r="3"></circle>
                <circle id="Oval-1-Copy" stroke="#979797" fill="#000000" cx="99" cy="69" r="3"></circle>
                <circle id="Oval-1-Copy-2" stroke="#979797" fill="#000000" cx="91" cy="69" r="3"></circle>
                <circle id="Oval-1-Copy-3" stroke="#979797" fill="#000000" cx="83" cy="69" r="3"></circle>
                <circle id="Oval-1-Copy-4" stroke="#979797" fill="#000000" cx="75" cy="69" r="3"></circle>
                <use id="Rectangle-1-Copy-3" stroke="#979797" mask="url(#mask-18)" stroke-width="2" fill="#000000" xlink:href="#path-17"></use>
                <path d="M20.7109375,90.6230469 L25.4140625,114.9375 L380.431641,114.9375 C380.431641,114.9375 388.078572,115.094691 392.710938,112.094727 C394.336059,111.042282 394.238281,108.712891 399.204102,102.780273 C404.169922,96.8476562 403.728516,90.6230469 403.728516,90.6230469 L20.7109375,90.6230469 Z" id="Path-1" fill="#9B9B9B"></path>
                <path d="M21.0284424,92.2147827 L20,87.0351562 L121.309752,86.8505859 C121.309752,86.8505859 126.758572,86.912179 131.392591,89.2323346 C136.026611,91.5524902 138.376855,91.3618348 138.620361,92.2147827 C138.815323,92.8976885 152.272036,96.7495521 145.815186,97.0893555 C120.849254,98.4032327 21.0284424,92.2147827 21.0284424,92.2147827 Z" id="Path-2" fill="#9B9B9B"></path>
                <g id="flagge1" transform="translate(11.168770, 75.557290) rotate(-26.000000) translate(-11.168770, -75.557290) translate(1.668770, 69.557290)">
                    <rect id="Rectangle-19" fill="#000000" x="0" y="0" width="19" height="4.00934579"></rect>
                    <rect id="Rectangle-19-Copy" fill="#C31D1D" x="0" y="4.00934579" width="19" height="4.00934579"></rect>
                    <rect id="Rectangle-19-Copy-2" fill="#F8E81C" x="0" y="7.99065421" width="19" height="4.00934579"></rect>
                </g>
                <rect id="Rectangle-16" fill="#FFFFFF" transform="translate(21.394737, 73.308332) rotate(-26.000000) translate(-21.394737, -73.308332) " x="20.8947373" y="64.308332" width="1" height="18"></rect>
            </g>
            <g id="euro" transform="translate(678.000000, 83.500000) scale(-1, 1) translate(-678.000000, -83.500000) translate(476.000000, 0.000000)">
                <rect id="Rectangle-24-Copy-15" fill="#50E3C2" x="119" y="125" width="31" height="18"></rect>
                <rect id="Rectangle-24-Copy-39" fill="#1973DD" x="107" y="107" width="31" height="18"></rect>
                <rect id="Rectangle-24-Copy-48" fill="#F8E81C" x="107" y="89" width="31" height="18"></rect>
                <rect id="Rectangle-24-Copy-57" fill="#C31D1D" x="107" y="71" width="31" height="18"></rect>
                <rect id="Rectangle-24-Copy-66" fill="#F8E81C" x="107" y="53" width="31" height="18"></rect>
                <rect id="Rectangle-24-Copy-75" fill="#7ED321" x="107" y="35" width="31" height="18"></rect>
                <rect id="Rectangle-24-Copy-84" fill="#F85D00" x="107" y="17" width="31" height="18"></rect>
                <rect id="Rectangle-24-Copy-85" fill="#B8E986" x="138" y="17" width="31" height="18"></rect>
                <rect id="Rectangle-24-Copy-86" fill="#F8E81C" x="169" y="17" width="31" height="18"></rect>
                <rect id="Rectangle-24-Copy-87" fill="#4990E2" x="200" y="17" width="31" height="18"></rect>
                <rect id="Rectangle-24-Copy-88" fill="#4990E2" x="231" y="17" width="31" height="18"></rect>
                <rect id="Rectangle-24-Copy-76" fill="#50E3C2" x="138" y="35" width="31" height="18"></rect>
                <rect id="Rectangle-24-Copy-77" fill="#F6A623" x="169" y="35" width="31" height="18"></rect>
                <rect id="Rectangle-24-Copy-78" fill="#7ED321" x="200" y="35" width="31" height="18"></rect>
                <rect id="Rectangle-24-Copy-79" fill="#50E3C2" x="231" y="35" width="31" height="18"></rect>
                <rect id="Rectangle-24-Copy-80" fill="#50E3C2" x="262" y="35" width="31" height="18"></rect>
                <rect id="Rectangle-24-Copy-81" fill="#F6A623" x="293" y="35" width="31" height="18"></rect>
                <rect id="Rectangle-24-Copy-82" fill="#1973DD" x="324" y="35" width="31" height="18"></rect>
                <rect id="Rectangle-24-Copy-83" fill="#4990E2" x="355" y="35" width="31" height="18"></rect>
                <rect id="Rectangle-113-Copy" fill="#FFFFFF" x="73" y="0" width="31" height="84"></rect>
                <rect id="Rectangle-24-Copy-67" fill="#F85D00" x="138" y="53" width="31" height="18"></rect>
                <rect id="Rectangle-24-Copy-68" fill="#4990E2" x="169" y="53" width="31" height="18"></rect>
                <rect id="Rectangle-24-Copy-69" fill="#8B572A" x="200" y="53" width="31" height="18"></rect>
                <rect id="Rectangle-24-Copy-70" fill="#B8E986" x="231" y="53" width="31" height="18"></rect>
                <rect id="Rectangle-24-Copy-71" fill="#F85D00" x="262" y="53" width="31" height="18"></rect>
                <rect id="Rectangle-24-Copy-72" fill="#D0011B" x="293" y="53" width="31" height="18"></rect>
                <rect id="Rectangle-24-Copy-73" fill="#F8E81C" x="324" y="53" width="31" height="18"></rect>
                <rect id="Rectangle-24-Copy-74" fill="#8B572A" x="355" y="53" width="31" height="18"></rect>
                <rect id="Rectangle-24-Copy-58" fill="#8B572A" x="138" y="71" width="31" height="18"></rect>
                <rect id="Rectangle-24-Copy-59" fill="#50E3C2" x="169" y="71" width="31" height="18"></rect>
                <rect id="Rectangle-24-Copy-60" fill="#1973DD" x="200" y="71" width="31" height="18"></rect>
                <rect id="Rectangle-24-Copy-61" fill="#F8E81C" x="231" y="71" width="31" height="18"></rect>
                <rect id="Rectangle-24-Copy-62" fill="#F8E81C" x="262" y="71" width="31" height="18"></rect>
                <rect id="Rectangle-24-Copy-63" fill="#7ED321" x="293" y="71" width="31" height="18"></rect>
                <rect id="Rectangle-24-Copy-64" fill="#F6A623" x="324" y="71" width="31" height="18"></rect>
                <rect id="Rectangle-24-Copy-65" fill="#4990E2" x="355" y="71" width="31" height="18"></rect>
                <rect id="Rectangle-24-Copy-49" fill="#F85D00" x="138" y="89" width="31" height="18"></rect>
                <rect id="Rectangle-24-Copy-50" fill="#7ED321" x="169" y="89" width="31" height="18"></rect>
                <rect id="Rectangle-24-Copy-51" fill="#D0011B" x="200" y="89" width="31" height="18"></rect>
                <rect id="Rectangle-24-Copy-52" fill="#FBBB00" x="231" y="89" width="31" height="18"></rect>
                <rect id="Rectangle-24-Copy-53" fill="#1973DD" x="262" y="89" width="31" height="18"></rect>
                <rect id="Rectangle-24-Copy-54" fill="#8B572A" x="293" y="89" width="31" height="18"></rect>
                <rect id="Rectangle-24-Copy-55" fill="#D0011B" x="324" y="89" width="31" height="18"></rect>
                <rect id="Rectangle-24-Copy-56" fill="#50E3C2" x="355" y="89" width="31" height="18"></rect>
                <rect id="Rectangle-24-Copy-40" fill="#1973DD" x="138" y="107" width="31" height="18"></rect>
                <rect id="Rectangle-24-Copy-41" fill="#7ED321" x="169" y="107" width="31" height="18"></rect>
                <rect id="Rectangle-24-Copy-42" fill="#F8E81C" x="200" y="107" width="31" height="18"></rect>
                <rect id="Rectangle-24-Copy-43" fill="#C31D1D" x="231" y="107" width="31" height="18"></rect>
                <rect id="Rectangle-24-Copy-44" fill="#4990E2" x="262" y="107" width="31" height="18"></rect>
                <rect id="Rectangle-24-Copy-45" fill="#F85D00" x="293" y="107" width="31" height="18"></rect>
                <rect id="Rectangle-24-Copy-46" fill="#B8E986" x="324" y="107" width="31" height="18"></rect>
                <rect id="Rectangle-24-Copy-47" fill="#F8E81C" x="355" y="107" width="31" height="18"></rect>
                <rect id="Rectangle-24-Copy-31" fill="#FBBB00" x="150" y="125" width="31" height="18"></rect>
                <rect id="Rectangle-24-Copy-32" fill="#F85D00" x="181" y="125" width="31" height="18"></rect>
                <rect id="Rectangle-24-Copy-33" fill="#8B572A" x="212" y="125" width="31" height="18"></rect>
                <rect id="Rectangle-24-Copy-34" fill="#50E3C2" x="243" y="125" width="31" height="18"></rect>
                <rect id="Rectangle-24-Copy-35" fill="#F8E81C" x="274" y="125" width="31" height="18"></rect>
                <rect id="Rectangle-24-Copy-36" fill="#FBBB00" x="305" y="125" width="31" height="18"></rect>
                <rect id="Rectangle-24-Copy-37" fill="#4990E2" x="336" y="125" width="31" height="18"></rect>
                <rect id="Rectangle-24-Copy-38" fill="#7ED321" x="367" y="125" width="31" height="18"></rect>
                <polygon id="Path-3" fill="#FFFFFF" points="20.2866211 139.217773 20.0693359 131.469238 29.8583984 131.512695 29.7612305 114.761719 32.5048828 106.548828 65.6044922 106.625 65.6152344 83.7275391 103.887695 83.4121094 103.887695 92.9404297 108.371094 93.2011719 108.28418 116.71582 111.801758 116.976562 111.898438 123.837891 117.933594 124.272461 141.952148 151.117188 22.6396484 147.374023"></polygon>
                <use id="Rectangle-1" stroke="#979797" mask="url(#mask-20)" stroke-width="2" fill="#000000" xlink:href="#path-19"></use>
                <use id="Rectangle-1-Copy" stroke="#979797" mask="url(#mask-22)" stroke-width="2" fill="#000000" xlink:href="#path-21"></use>
                <use id="Rectangle-1-Copy-2" stroke="#979797" mask="url(#mask-24)" stroke-width="2" fill="#000000" xlink:href="#path-23"></use>
                <use id="Rectangle-1-Copy-9" stroke="#979797" mask="url(#mask-26)" stroke-width="2" fill="#000000" xlink:href="#path-25"></use>
                <use id="Rectangle-1-Copy-10" stroke="#979797" mask="url(#mask-28)" stroke-width="2" fill="#000000" xlink:href="#path-27"></use>
                <use id="Rectangle-1-Copy-4" stroke="#979797" mask="url(#mask-30)" stroke-width="2" fill="#000000" xlink:href="#path-29"></use>
                <use id="Rectangle-1-Copy-5" stroke="#979797" mask="url(#mask-32)" stroke-width="2" fill="#000000" xlink:href="#path-31"></use>
                <use id="Rectangle-1-Copy-6" stroke="#979797" mask="url(#mask-34)" stroke-width="2" fill="#000000" xlink:href="#path-33"></use>
                <circle id="Oval-1" stroke="#979797" fill="#000000" cx="107" cy="121" r="3"></circle>
                <circle id="Oval-1-Copy-5" stroke="#979797" fill="#000000" cx="119" cy="133" r="3"></circle>
                <circle id="Oval-1-Copy-6" stroke="#979797" fill="#000000" cx="111" cy="133" r="3"></circle>
                <circle id="Oval-1-Copy-7" stroke="#979797" fill="#000000" cx="103" cy="133" r="3"></circle>
                <circle id="Oval-1-Copy-8" stroke="#979797" fill="#000000" cx="95" cy="133" r="3"></circle>
                <circle id="Oval-1-Copy" stroke="#979797" fill="#000000" cx="99" cy="121" r="3"></circle>
                <circle id="Oval-1-Copy-2" stroke="#979797" fill="#000000" cx="91" cy="121" r="3"></circle>
                <circle id="Oval-1-Copy-3" stroke="#979797" fill="#000000" cx="83" cy="121" r="3"></circle>
                <circle id="Oval-1-Copy-4" stroke="#979797" fill="#000000" cx="75" cy="121" r="3"></circle>
                <use id="Rectangle-1-Copy-3" stroke="#979797" mask="url(#mask-36)" stroke-width="2" fill="#000000" xlink:href="#path-35"></use>
                <path d="M20.7109375,142.623047 L25.4140625,166.9375 L380.431641,166.9375 C380.431641,166.9375 388.078572,167.094691 392.710938,164.094727 C394.336059,163.042282 394.238281,160.712891 399.204102,154.780273 C404.169922,148.847656 403.728516,142.623047 403.728516,142.623047 L20.7109375,142.623047 Z" id="Path-1" fill="#9B9B9B"></path>
                <path d="M21.0284424,144.214783 L20,139.035156 L121.309752,138.850586 C121.309752,138.850586 126.758572,138.912179 131.392591,141.232335 C136.026611,143.55249 138.376855,143.361835 138.620361,144.214783 C138.815323,144.897689 152.272036,148.749552 145.815186,149.089355 C120.849254,150.403233 21.0284424,144.214783 21.0284424,144.214783 Z" id="Path-2" fill="#9B9B9B"></path>
                <g id="flagge1" transform="translate(11.168770, 127.557290) rotate(-26.000000) translate(-11.168770, -127.557290) translate(1.668770, 121.557290)">
                    <rect id="Rectangle-19" fill="#4990E2" x="-8.52651283e-14" y="-4.26325641e-14" width="19" height="4.00934579"></rect>
                    <rect id="Rectangle-19-Copy" fill="#4990E2" x="-9.23705556e-14" y="4.00934579" width="19" height="4.00934579"></rect>
                    <rect id="Rectangle-19-Copy-2" fill="#4990E2" x="-2.84217094e-14" y="7.99065421" width="19" height="4.00934579"></rect>
                    <ellipse id="Oval-19" stroke="#F8E81C" cx="9" cy="5.99766355" rx="4" ry="3.99766355"></ellipse>
                </g>
                <rect id="Rectangle-16" fill="#FFFFFF" transform="translate(21.394737, 125.308332) rotate(-26.000000) translate(-21.394737, -125.308332) " x="20.8947373" y="116.308332" width="1" height="18"></rect>
            </g>
        </g>
    </g>
</svg>
